<?xml version="1.0" encoding="UTF-8"?>
<svg width="1200px" height="800px" viewBox="0 0 1200 800" version="1.1" xmlns="http://www.w3.org/2000/svg">
  <g stroke="none" stroke-width="1" fill="none" fill-rule="evenodd">
    <g transform="translate(0.000000, -200.000000)" fill="#FFFFFF">
      <path d="M0,800 C200,900 400,1000 600,1000 C800,1000 1000,900 1200,800 L1200,1000 L0,1000 L0,800 Z" opacity="0.3"></path>
      <path d="M0,700 C200,800 400,900 600,900 C800,900 1000,800 1200,700 L1200,1000 L0,1000 L0,700 Z" opacity="0.15"></path>
      <circle cx="100" cy="350" r="5" opacity="0.1"></circle>
      <circle cx="200" cy="400" r="5" opacity="0.1"></circle>
      <circle cx="300" cy="300" r="5" opacity="0.1"></circle>
      <circle cx="400" cy="500" r="5" opacity="0.1"></circle>
      <circle cx="500" cy="300" r="5" opacity="0.1"></circle>
      <circle cx="600" cy="400" r="5" opacity="0.1"></circle>
      <circle cx="700" cy="500" r="5" opacity="0.1"></circle>
      <circle cx="800" cy="350" r="5" opacity="0.1"></circle>
      <circle cx="900" cy="450" r="5" opacity="0.1"></circle>
      <circle cx="1000" cy="300" r="5" opacity="0.1"></circle>
      <circle cx="1100" cy="500" r="5" opacity="0.1"></circle>
    </g>
  </g>
</svg>
